<svg width="58" height="58" viewBox="0 0 58 58" fill="none" xmlns="http://www.w3.org/2000/svg">
  <path d="M28.9595 42.7286C26.0015 39.0166 24.2615 35.7628 23.6815 32.9788C23.1015 30.7168 23.3335 28.9188 24.3195 27.5848C25.3635 26.0188 26.9295 25.2648 28.9595 25.2648C30.9895 25.2648 32.5555 26.0188 33.5995 27.5848C34.5855 28.9188 34.8175 30.7168 34.2375 32.9788C33.5995 35.8208 31.8595 39.0688 28.9595 42.7286ZM49.9671 45.2226C49.5611 47.9486 47.7051 50.2106 45.1531 51.3126C40.2231 53.4586 35.3453 50.0366 31.1693 45.3966C38.0771 36.7488 39.3531 30.0208 36.3893 25.665C34.6493 23.171 32.1553 21.953 28.9595 21.953C22.5215 21.953 18.9777 27.405 20.3697 33.7328C21.1817 37.1548 23.3277 41.0466 26.7497 45.3966C24.6037 47.7746 22.5737 49.4566 20.7757 50.5006C19.3837 51.2546 18.0497 51.7186 16.7737 51.8346C10.9157 52.7046 6.32788 47.0206 8.41588 41.1568C8.70588 40.4028 9.28588 39.0108 10.2719 36.8648L10.3299 36.7488C13.5199 29.783 17.4117 21.895 21.8777 13.1312L21.9937 12.8412L23.2697 10.4052C24.2557 8.60718 24.6617 7.79518 26.2277 6.80918C26.9817 6.34518 27.9097 6.11318 28.9537 6.11318C31.0417 6.11318 32.6657 7.33118 33.3617 8.31718C33.7097 8.83918 34.1157 9.53518 34.6377 10.4052L35.8557 12.7832L36.0297 13.1312C40.4957 21.895 44.3875 29.783 47.5775 36.7488L47.6355 36.8068L48.7955 39.4748L49.4915 41.1568C50.0251 42.4966 50.1411 43.8306 49.9671 45.2226ZM52.6351 39.9968C52.2291 38.7208 51.5331 37.2128 50.6631 35.4148V35.3568C46.5451 26.593 42.7113 18.705 39.0573 11.6232L38.8253 11.2752C36.2153 5.93918 34.3593 2.74338 28.9595 2.74338C23.6235 2.74338 21.3557 6.45538 19.0357 11.2752L18.8617 11.6232C15.2077 18.705 11.3739 26.593 7.25588 35.3568V35.4728L6.03788 38.1408C5.57388 39.2428 5.34188 39.8228 5.28388 39.9968C2.32588 48.1226 8.41588 55.2566 15.7877 55.2566C15.8457 55.2566 16.0777 55.2566 16.3677 55.1986H17.1797C21.0077 54.7346 24.9575 52.2986 28.9595 47.9428C32.9615 52.2928 36.9113 54.7346 40.7393 55.1986H41.5513C41.8413 55.2566 42.0733 55.2566 42.1313 55.2566C49.5031 55.2624 55.5931 48.1226 52.6351 39.9968Z" fill="white"/>
  </svg>
  